<svg width="21" height="21" viewBox="0 0 21 21" fill="none" xmlns="http://www.w3.org/2000/svg">
<g id="Media / Icon/Unfilled/clipboard-list">
<path id="Icon" d="M8.1658 5.05556H6.61024C5.75113 5.05556 5.05469 5.752 5.05469 6.61111V15.9444C5.05469 16.8036 5.75113 17.5 6.61024 17.5H14.388C15.2471 17.5 15.9436 16.8036 15.9436 15.9444V6.61111C15.9436 5.752 15.2471 5.05556 14.388 5.05556H12.8325M8.1658 5.05556C8.1658 5.91467 8.86224 6.61111 9.72135 6.61111H11.2769C12.136 6.61111 12.8325 5.91467 12.8325 5.05556M8.1658 5.05556C8.1658 4.19645 8.86224 3.5 9.72135 3.5H11.2769C12.136 3.5 12.8325 4.19645 12.8325 5.05556M10.4991 10.5H12.8325M10.4991 13.6111H12.8325M8.1658 10.5H8.17358M8.1658 13.6111H8.17358" stroke="#031228" stroke-width="1.67" stroke-linecap="round"/>
</g>
</svg>
