<svg xmlns="http://www.w3.org/2000/svg" width="102" height="45" viewBox="0 0 102 45" fill="none">
  <path fill-rule="evenodd" clip-rule="evenodd" d="M8.67976 29.5964H97.3692V11.5504H8.67976V29.5964Z" fill="white"/>
  <path fill-rule="evenodd" clip-rule="evenodd" d="M74.5576 22.4681C74.3731 22.5692 74.2462 22.6881 74.1744 22.8238C74.1034 22.9604 74.068 23.112 74.068 23.2779C74.068 23.5156 74.1451 23.7143 74.2995 23.8739C74.4538 24.0345 74.6729 24.1143 74.9585 24.1143C75.1829 24.1143 75.3913 24.0673 75.5811 23.9715C75.77 23.8766 75.9306 23.7524 76.061 23.5981C76.1913 23.4438 76.2951 23.2628 76.3732 23.0553C76.4494 22.8477 76.4885 22.6375 76.4885 22.4238V22.1391C76.0139 22.1391 75.6192 22.1683 75.3053 22.2278C74.9904 22.2872 74.7412 22.3679 74.5576 22.4681Z" fill="#134EE7"/>
  <path fill-rule="evenodd" clip-rule="evenodd" d="M27.3466 19.256C27.1329 19.256 26.9253 19.2977 26.724 19.3802C26.5218 19.4636 26.3408 19.5939 26.1812 19.7722C26.0206 19.9496 25.8929 20.1784 25.798 20.4569C25.7031 20.7363 25.6561 21.0716 25.6561 21.4628C25.6561 22.2814 25.7865 22.8801 26.0473 23.2597C26.308 23.6402 26.724 23.8292 27.2934 23.8292C27.791 23.8292 28.1919 23.634 28.4944 23.242C28.7968 22.8508 28.9485 22.2814 28.9485 21.5337C28.9485 20.7745 28.8234 20.205 28.5742 19.8254C28.325 19.4458 27.9161 19.256 27.3466 19.256Z" fill="#134EE7"/>
  <path fill-rule="evenodd" clip-rule="evenodd" d="M51.7422 18.9002C51.3511 18.9002 51.0238 19.043 50.763 19.3268C50.5022 19.6115 50.3479 19.9858 50.3009 20.4479H52.9875C53.0114 19.9379 52.9077 19.553 52.6762 19.2913C52.4447 19.0305 52.1334 18.9002 51.7422 18.9002Z" fill="#134EE7"/>
  <path fill-rule="evenodd" clip-rule="evenodd" d="M92.6085 24.4079C92.4187 24.7813 92.149 25.0988 91.7987 25.3596C91.4492 25.6212 91.0279 25.8226 90.5356 25.9654C90.0434 26.1073 89.4944 26.1783 88.8895 26.1783C88.1781 26.1783 87.5244 26.0958 86.9319 25.929L87.0739 23.7223C87.6193 23.96 88.2367 24.0788 88.9249 24.0788C89.2691 24.0788 89.536 24.0167 89.7259 23.8917C89.9157 23.7675 90.0106 23.5981 90.0106 23.3843C90.0106 23.1706 89.9307 23.0021 89.7702 22.8779C89.6105 22.7528 89.4083 22.6437 89.1653 22.5479C88.9223 22.453 88.6606 22.3528 88.3821 22.2455C88.1027 22.1391 87.842 21.9909 87.5989 21.8011C87.3559 21.6113 87.1546 21.3647 86.994 21.0623C86.8335 20.7598 86.7537 20.3651 86.7537 19.8791C86.7537 19.4755 86.8308 19.0932 86.9852 18.7314C87.1395 18.3695 87.3763 18.0546 87.6974 17.7876C88.0176 17.5207 88.4238 17.3105 88.9161 17.1561C89.4083 17.0018 89.9928 16.9246 90.6687 16.9246C90.9064 16.9246 91.1609 16.9397 91.4341 16.969C91.7064 16.9991 91.9681 17.0382 92.2173 17.0852L92.1277 19.2023C91.9024 19.1199 91.6568 19.0604 91.3898 19.025C91.1228 18.9895 90.8585 18.9717 90.5977 18.9717C90.2536 18.9717 89.999 19.0338 89.8323 19.158C89.6664 19.2831 89.5831 19.4463 89.5831 19.6476C89.5831 19.8374 89.6664 19.9917 89.8323 20.1106C89.999 20.2294 90.203 20.3421 90.4469 20.4485C90.69 20.555 90.9534 20.6676 91.2381 20.7864C91.5228 20.9053 91.7871 21.0596 92.0302 21.2494C92.2732 21.4392 92.4781 21.6849 92.6439 21.9874C92.8098 22.2898 92.8932 22.6792 92.8932 23.1528C92.8932 23.6158 92.7983 24.0345 92.6085 24.4079ZM85.9492 19.6121C85.2024 19.4463 84.6392 19.5793 84.2587 20.0121C83.879 20.4459 83.6901 21.2193 83.6901 22.3351V25.9831H81.0026V17.1384H83.5136C83.5136 17.3282 83.5047 17.5686 83.487 17.8595C83.4684 18.1504 83.4364 18.4316 83.3894 18.7048H83.424C83.6608 18.1708 83.9926 17.7318 84.4192 17.3876C84.8467 17.0435 85.3984 16.8892 86.0742 16.9246L85.9492 19.6121ZM76.7373 25.9831C76.7373 25.7694 76.7399 25.5494 76.7461 25.3241C76.7523 25.0988 76.7727 24.8735 76.8082 24.6483H76.7914C76.5776 25.1112 76.2273 25.482 75.7412 25.7605C75.2543 26.039 74.7026 26.1783 74.0862 26.1783C73.6586 26.1783 73.2852 26.11 72.965 25.9734C72.644 25.8377 72.3779 25.6505 72.1641 25.4137C71.9504 25.176 71.7872 24.9002 71.6745 24.5862C71.5619 24.2713 71.5051 23.9307 71.5051 23.5626C71.5051 23.0047 71.6302 22.5275 71.8794 22.1302C72.1286 21.7328 72.4719 21.4091 72.9118 21.1599C73.35 20.9106 73.8751 20.727 74.4862 20.6082C75.0973 20.4902 75.7643 20.4308 76.488 20.4308V20.0751C76.488 19.707 76.3727 19.4338 76.1412 19.2564C75.9097 19.0782 75.4973 18.9895 74.9048 18.9895C74.5128 18.9895 74.0977 19.0454 73.6586 19.158C73.2196 19.2715 72.8222 19.4099 72.4666 19.5766L72.0036 17.4586C72.4666 17.2927 72.997 17.1597 73.5965 17.0586C74.1952 16.9575 74.786 16.9069 75.3669 16.9069C76.1146 16.9069 76.7346 16.9752 77.2269 17.1118C77.7191 17.2484 78.1138 17.4497 78.4101 17.7167C78.7063 17.9837 78.9147 18.3074 79.0327 18.6861C79.1516 19.0666 79.211 19.4995 79.211 19.9855V23.8828C79.211 24.203 79.2172 24.5471 79.2287 24.9152C79.2402 25.2824 79.258 25.639 79.2819 25.9831H76.7373ZM69.7241 26.1073C69.3684 26.1543 69.0305 26.1783 68.7103 26.1783C68.1994 26.1783 67.7728 26.1312 67.4287 26.0363C67.0845 25.9414 66.806 25.7844 66.5923 25.5645C66.3785 25.3454 66.2277 25.0545 66.139 24.6926C66.0494 24.3307 66.0051 23.8766 66.0051 23.3311V19.2201H64.6702V17.1384H66.0051V14.5228L68.728 13.7928V17.1384H70.6315V19.2201H68.728V22.7085C68.728 23.1599 68.7928 23.4739 68.9232 23.6513C69.0536 23.8296 69.2913 23.9183 69.6354 23.9183C69.8013 23.9183 69.9583 23.9068 70.1064 23.8828C70.2554 23.8598 70.4062 23.8296 70.5605 23.7941L70.721 25.9113C70.4124 25.9947 70.0807 26.0594 69.7241 26.1073ZM64.099 23.7675C63.8675 24.2598 63.5411 24.6864 63.1207 25.0483C62.6994 25.4102 62.1983 25.6922 61.6173 25.8935C61.0355 26.0958 60.3889 26.196 59.6767 26.196C59.1081 26.196 58.5919 26.1694 58.1289 26.1162C57.6659 26.063 57.2269 25.9831 56.8118 25.8758L57.0788 23.2424C57.4699 23.4083 57.8885 23.5387 58.3338 23.6336C58.7782 23.7294 59.25 23.7764 59.7485 23.7764C60.1991 23.7764 60.5849 23.6779 60.9051 23.4828C61.2253 23.2868 61.3849 22.9692 61.3849 22.5302C61.3849 22.1861 61.267 21.92 61.0293 21.7293C60.7924 21.5404 60.4953 21.371 60.1396 21.2228C59.784 21.0747 59.3981 20.923 58.9831 20.7687C58.5671 20.6144 58.1821 20.4068 57.8265 20.1461C57.4699 19.8853 57.1737 19.55 56.9368 19.1403C56.6991 18.7314 56.5812 18.1886 56.5812 17.5118C56.5812 16.9424 56.6876 16.4297 56.9014 15.9729C57.1142 15.5162 57.4229 15.1215 57.8265 14.7897C58.2291 14.4571 58.7249 14.2026 59.3121 14.0243C59.8993 13.846 60.5725 13.7573 61.3317 13.7573C61.6404 13.7573 61.996 13.7751 62.3996 13.8105C62.8032 13.846 63.1766 13.9054 63.5207 13.9888L63.2715 16.4084C62.5956 16.1716 61.9073 16.0528 61.2075 16.0528C60.6381 16.0528 60.2195 16.1565 59.9525 16.3641C59.6518 16.5991 59.5205 16.9202 59.5596 17.3291C59.5809 17.5579 59.7041 17.7672 59.8824 17.9118C60.1317 18.1123 60.4456 18.2959 60.8253 18.4644C61.1863 18.624 61.5783 18.7872 61.9996 18.9531C62.42 19.1199 62.812 19.3363 63.1739 19.6032C63.5358 19.8702 63.8383 20.2082 64.0813 20.617C64.3243 21.0268 64.4458 21.5457 64.4458 22.1745C64.4458 22.744 64.3305 23.2752 64.099 23.7675ZM55.6481 21.614C55.6304 21.81 55.61 22.0202 55.586 22.2455H50.3006C50.3122 22.8273 50.4967 23.2779 50.8532 23.5981C51.2107 23.9183 51.7579 24.0788 52.4958 24.0788C52.9242 24.0788 53.3589 24.0345 53.7988 23.9449C54.2387 23.8562 54.6733 23.717 55.1017 23.5271L55.3678 25.5734C54.8578 25.7756 54.3141 25.9264 53.7376 26.0275C53.1611 26.1277 52.5996 26.1783 52.0524 26.1783C50.6022 26.1783 49.4908 25.8164 48.7192 25.0926C47.9466 24.3698 47.5599 23.2247 47.5599 21.6583C47.5599 20.9825 47.6522 20.3536 47.8367 19.7718C48.0203 19.1908 48.2943 18.6897 48.6571 18.2684C49.019 17.8471 49.4651 17.518 49.9946 17.2803C50.5233 17.0435 51.1326 16.9246 51.8227 16.9246C52.4879 16.9246 53.0644 17.032 53.5522 17.2448C54.04 17.4586 54.4409 17.7495 54.7558 18.1167C55.0707 18.4848 55.3031 18.9176 55.4521 19.4161C55.6002 19.9146 55.6747 20.4547 55.6747 21.0357C55.6747 21.2255 55.6658 21.418 55.6481 21.614ZM46.2313 25.9831H43.5083V20.4343C43.5083 20.0529 43.4524 19.7531 43.3407 19.5323C43.2289 19.3123 43.0196 19.2023 42.7127 19.2023C42.5132 19.2023 42.31 19.2653 42.1034 19.3904C41.8976 19.5154 41.7122 19.6911 41.5473 19.9163C41.3814 20.1425 41.2492 20.4104 41.149 20.719C41.0488 21.0286 40.9991 21.3621 40.9991 21.7186V25.9831H38.3125V20.4157C38.3125 20.0591 38.2584 19.7673 38.1511 19.542C38.0429 19.3159 37.8283 19.2023 37.5054 19.2023C37.2908 19.2023 37.0752 19.268 36.8606 19.3992C36.6459 19.5296 36.4579 19.7088 36.2965 19.9341C36.1351 20.1603 36.0038 20.4255 35.9018 20.7279C35.7998 21.0312 35.7492 21.3621 35.7492 21.7186V25.9831H33.0626V17.1384H35.5913C35.5913 17.3034 35.5825 17.518 35.5647 17.7823C35.5461 18.0466 35.5204 18.2968 35.484 18.5318H35.5018C35.7767 18.0378 36.1617 17.6493 36.6566 17.3663C37.1524 17.0843 37.7165 16.9424 38.3489 16.9424C39.0292 16.9424 39.5693 17.0932 39.9694 17.393C40.3694 17.6927 40.6408 18.0724 40.7845 18.5318C41.0204 18.0963 41.3752 17.7229 41.8488 17.4107C42.3216 17.0985 42.8954 16.9424 43.5695 16.9424C44.4334 16.9424 45.0924 17.189 45.5474 17.6812C46.0033 18.1735 46.2313 18.9238 46.2313 19.9323V25.9831ZM31.404 23.3311C31.1663 23.9245 30.8399 24.4318 30.4248 24.8531C30.0097 25.2744 29.5175 25.6 28.948 25.8315C28.3786 26.063 27.7613 26.1783 27.097 26.1783C26.4566 26.1783 25.8756 26.0958 25.3532 25.929C24.8317 25.7632 24.3838 25.5024 24.0104 25.1467C23.6361 24.7902 23.3487 24.3343 23.1465 23.7764C22.9451 23.2185 22.844 22.5479 22.844 21.7656C22.844 21.0419 22.9602 20.3829 23.1917 19.7895C23.4223 19.197 23.7487 18.6897 24.17 18.2684C24.5913 17.8471 25.0862 17.5207 25.6557 17.2901C26.2251 17.0586 26.8486 16.9424 27.5245 16.9424C28.8771 16.9424 29.921 17.3105 30.6563 18.0458C31.3916 18.7819 31.7597 19.8906 31.7597 21.3736C31.7597 22.0858 31.6408 22.7378 31.404 23.3311ZM21.432 25.9831H18.6558V20.9825H14.26V25.9831H11.4839V13.9711H14.26V18.5797H18.6558V13.9711H21.432V25.9831ZM96.8144 9.0529C94.291 8.13135 91.4572 8.08612 88.8096 7.85462C85.8348 7.59563 82.7162 7.36413 79.7414 7.11047C73.546 6.58273 67.4153 6.15876 61.22 5.62393C48.9037 4.56224 36.5909 3.47394 24.2729 2.43354C21.0736 2.16391 17.8771 1.87476 14.676 1.62641C12.1322 1.3754 7.52982 0.88403 6.85928 0.886691C2.8591 0.903544 0.866112 3.52982 0.209764 6.83462C-0.0474534 8.12869 -0.0510012 9.4609 0.106877 10.7709C0.680738 15.5357 1.16324 20.3261 1.91627 25.0634C2.45997 28.4808 3.50924 31.8521 6.59585 33.799C9.56006 35.6696 15.7998 35.2571 20.1015 35.2589C25.0907 35.2616 30.0807 35.2634 35.0698 35.2634C45.2982 35.2642 55.5266 35.2607 65.7559 35.2465C67.1227 35.2447 70.8922 35.2642 70.8922 35.2642C70.8922 35.2642 71.5255 35.7432 72.1003 36.2869C73.5699 37.6768 75.1461 38.9584 76.8357 40.0715C79.7981 42.0255 84.1708 44.4292 87.8464 44.0939C84.9061 41.9723 83.2511 38.9096 82.9903 35.3095C88.2012 35.1959 95.8654 35.9578 99.1453 31.9665C102.123 28.3442 101.803 22.642 101.958 18.2435C102.097 14.2771 100.828 10.5182 96.8144 9.0529Z" fill="#134EE7"/>
</svg>